# xmcd
#
# Track frame offsets:
#	182
#	10560
#	23717
#	35232
#	45342
#	53905
#	68450
#	79370
#
# Disc length: 1201 seconds
#
# Revision: 1
# Processed by: cddbd v1.4b41PL1 Copyright (c) Steve Scherf et al.
# Submitted via: audiograbber 1.80
#
DISCID=5804af08
DTITLE=Patsy Cline - Patsy Sings Her Favorites
DYEAR=1900
DGENRE=
TTITLE0=Pick Me Up On Your Way Down
TTITLE1=If I Could See The World
TTITLE2=Cry Not For Me
TTITLE3=Turn The Cards Slowly
TTITLE4=Come On In
TTITLE5=Then You'll Know
TTITLE6=Honky Tonk Merry-Go-Round
TTITLE7=I Cried All The Way To The Alter
EXTD=
EXTT0=
EXTT1=
EXTT2=
EXTT3=
EXTT4=
EXTT5=
EXTT6=
EXTT7=
PLAYORDER=
